<?xml version="1.0" encoding="UTF-8" standalone="no"?>
<!-- Created with Inkscape (http://www.inkscape.org/) -->
<svg
   xmlns:dc="http://purl.org/dc/elements/1.1/"
   xmlns:cc="http://web.resource.org/cc/"
   xmlns:rdf="http://www.w3.org/1999/02/22-rdf-syntax-ns#"
   xmlns:svg="http://www.w3.org/2000/svg"
   xmlns="http://www.w3.org/2000/svg"
   xmlns:xlink="http://www.w3.org/1999/xlink"
   xmlns:sodipodi="http://sodipodi.sourceforge.net/DTD/sodipodi-0.dtd"
   xmlns:inkscape="http://www.inkscape.org/namespaces/inkscape"
   width="156.683"
   height="74.099625"
   id="svg2698"
   sodipodi:version="0.32"
   inkscape:version="0.45"
   sodipodi:docbase="/home/kou/work/ruby/rcairo-doc"
   sodipodi:docname="rcairo-title.svg"
   version="1.0"
   inkscape:output_extension="org.inkscape.output.svg.inkscape"
   inkscape:export-filename="/home/kou/work/ruby/rcairo-doc/rcairo-title.png"
   inkscape:export-xdpi="100"
   inkscape:export-ydpi="100"
   sodipodi:modified="TRUE">
  <defs
     id="defs2700">
    <linearGradient
       id="linearGradient3598">
      <stop
         style="stop-color:#cb2327;stop-opacity:0.47843137;"
         offset="0"
         id="stop3600" />
      <stop
         id="stop3606"
         offset="0.63636363"
         style="stop-color:#cb2327;stop-opacity:0.49803922;" />
      <stop
         style="stop-color:#cb2327;stop-opacity:0;"
         offset="1"
         id="stop3602" />
    </linearGradient>
    <marker
       inkscape:stockid="Arrow1Send"
       orient="auto"
       refY="0"
       refX="0"
       id="Arrow1Send"
       style="overflow:visible">
      <path
         id="path9812"
         d="M 0,0 L 5,-5 L -12.5,0 L 5,5 L 0,0 z "
         style="fill-rule:evenodd;stroke:#000000;stroke-width:1pt;marker-start:none"
         transform="matrix(-0.2,0,0,-0.2,-1.2,0)" />
    </marker>
    <marker
       inkscape:stockid="Arrow1Lend"
       orient="auto"
       refY="0"
       refX="0"
       id="Arrow1Lend"
       style="overflow:visible">
      <path
         id="path9824"
         d="M 0,0 L 5,-5 L -12.5,0 L 5,5 L 0,0 z "
         style="fill-rule:evenodd;stroke:#000000;stroke-width:1pt;marker-start:none"
         transform="matrix(-0.8,0,0,-0.8,-10,0)" />
    </marker>
    <marker
       inkscape:stockid="Arrow1Mend"
       orient="auto"
       refY="0"
       refX="0"
       id="Arrow1Mend"
       style="overflow:visible">
      <path
         id="path9818"
         d="M 0,0 L 5,-5 L -12.5,0 L 5,5 L 0,0 z "
         style="fill-rule:evenodd;stroke:#000000;stroke-width:1pt;marker-start:none"
         transform="matrix(-0.4,0,0,-0.4,-4,0)" />
    </marker>
    <radialGradient
       cx="0"
       cy="0"
       r="60"
       fx="0"
       fy="0"
       id="gradient_radial_dung"
       gradientUnits="userSpaceOnUse">
      <stop
         style="stop-color:#9a9a9a;stop-opacity:1.0000000"
         offset="0.0000000"
         id="stop1553" />
      <stop
         style="stop-color:#bababa;stop-opacity:1.0000000"
         offset="0.69999999"
         id="stop1555" />
      <stop
         style="stop-color:#ffffff;stop-opacity:1.0000000"
         offset="0.94999999"
         id="stop1557" />
    </radialGradient>
    <linearGradient
       id="linearGradient2832">
      <stop
         id="stop2834"
         offset="0.0000000"
         style="stop-color:#ffffff;stop-opacity:1.0000000;" />
      <stop
         id="stop2836"
         offset="1.0000000"
         style="stop-color:#ffffff;stop-opacity:0.0000000;" />
    </linearGradient>
    <linearGradient
       id="linearGradient1401"
       gradientTransform="scale(1.288859,0.77588)"
       x1="16.488155"
       y1="82.751862"
       x2="107.28166"
       y2="82.751862"
       gradientUnits="userSpaceOnUse">
      <stop
         id="stop1403"
         offset="0.0000000"
         style="stop-color:#46a046;stop-opacity:1.0000000;" />
      <stop
         id="stop1405"
         offset="0.39364964"
         style="stop-color:#df421e;stop-opacity:1.0000000;" />
      <stop
         id="stop1407"
         offset="0.72036445"
         style="stop-color:#ada7c8;stop-opacity:1.0000000;" />
      <stop
         id="stop1409"
         offset="1.0000000"
         style="stop-color:#eed680;stop-opacity:1.0000000;" />
    </linearGradient>
    <filter
       inkscape:collect="always"
       x="-0.032100972"
       width="1.064202"
       y="-0.11153316"
       height="1.2230663"
       id="filter3590">
      <feGaussianBlur
         inkscape:collect="always"
         stdDeviation="1.3810942"
         id="feGaussianBlur3592" />
    </filter>
    <linearGradient
       inkscape:collect="always"
       xlink:href="#linearGradient3598"
       id="linearGradient3604"
       x1="200.28976"
       y1="-455.2403"
       x2="200.28976"
       y2="-480.9238"
       gradientUnits="userSpaceOnUse"
       gradientTransform="matrix(0.8349616,0,1.9809198e-8,0.8349616,-549.18691,-168.11845)" />
    <filter
       inkscape:collect="always"
       id="filter3820">
      <feGaussianBlur
         inkscape:collect="always"
         stdDeviation="7.9789494"
         id="feGaussianBlur3822" />
    </filter>
  </defs>
  <defs
     id="cairo-artwork_defs">
    <g
       id="hacker_emblem">
      <g
         style="fill:#ffffff;stroke:none"
         id="hacker_emblem_grid">
        <rect
           width="6"
           height="0.1"
           x="-2.95"
           y="-3.05"
           id="rect1503" />
        <rect
           width="0.1"
           height="6"
           x="2.95"
           y="-2.95"
           id="rect1505" />
        <rect
           width="6"
           height="0.1"
           x="-3.05"
           y="2.95"
           id="rect1507" />
        <rect
           width="0.1"
           height="6"
           x="-3.05"
           y="-3.05"
           id="rect1509" />
        <rect
           width="0.1"
           height="5.9000001"
           x="-1.05"
           y="-2.95"
           id="rect1511" />
        <rect
           width="0.1"
           height="5.9000001"
           x="0.94999999"
           y="-2.95"
           id="rect1513" />
        <rect
           width="1.9"
           height="0.1"
           x="-2.95"
           y="-1.05"
           id="rect1515" />
        <rect
           width="1.9"
           height="0.1"
           x="-0.94999999"
           y="-1.05"
           id="rect1517" />
        <rect
           width="1.9"
           height="0.1"
           x="1.05"
           y="-1.05"
           id="rect1519" />
        <rect
           width="1.9"
           height="0.1"
           x="-2.95"
           y="0.94999999"
           id="rect1521" />
        <rect
           width="1.9"
           height="0.1"
           x="-0.94999999"
           y="0.94999999"
           id="rect1523" />
        <rect
           width="1.9"
           height="0.1"
           x="1.05"
           y="0.94999999"
           id="rect1525" />
      </g>
      <g
         style="fill:#ffffff"
         id="hacker_emblem_dots">
        <circle
           cx="0"
           cy="-2"
           r="0.69999999"
           id="circle1528"
           sodipodi:cx="0"
           sodipodi:cy="-2"
           sodipodi:rx="0.69999999"
           sodipodi:ry="0.69999999" />
        <circle
           cx="2"
           cy="0"
           r="0.69999999"
           id="circle1530"
           sodipodi:cx="2"
           sodipodi:cy="0"
           sodipodi:rx="0.69999999"
           sodipodi:ry="0.69999999" />
        <circle
           cx="-2"
           cy="2"
           r="0.69999999"
           id="circle1532"
           sodipodi:cx="-2"
           sodipodi:cy="2"
           sodipodi:rx="0.69999999"
           sodipodi:ry="0.69999999" />
        <circle
           cx="0"
           cy="2"
           r="0.69999999"
           id="circle1534"
           sodipodi:cx="0"
           sodipodi:cy="2"
           sodipodi:rx="0.69999999"
           sodipodi:ry="0.69999999" />
        <circle
           cx="2"
           cy="2"
           r="0.69999999"
           id="circle1536"
           sodipodi:cx="2"
           sodipodi:cy="2"
           sodipodi:rx="0.69999999"
           sodipodi:ry="0.69999999" />
      </g>
    </g>
    <g
       style="fill:#3b80ae"
       id="scarab">
      <g
         transform="translate(-150,-170)"
         id="g1539">
        <path
           d="M 205.599,94.567 C 205.599,82.899 180.685,73.438 149.971,73.438 C 119.248,73.438 94.347,82.898 94.347,94.567 C 94.347,104.77 119.248,101.913 149.971,101.913 C 180.685,101.913 205.599,104.233 205.599,94.567 z "
           id="scarab_head" />
        <path
           d="M 136.423,161.506 C 136.423,161.506 149.174,174.083 149.97,174.868 C 152.232,172.636 163.515,161.506 163.515,161.506 C 170.65,154.47 250.626,155.107 254.581,155.143 C 254.112,148.845 253.327,142.671 252.256,136.624 C 237.073,117.345 209.445,104.399 177.771,104.399 L 122.253,104.399 C 90.508,104.399 62.814,117.41 47.655,136.769 C 46.601,142.769 45.826,148.897 45.359,155.143 C 49.321,155.106 129.288,154.47 136.423,161.506 z "
           id="scarab_torso" />
        <path
           d="M 149.97,301.187 C 151.975,276.458 158.356,197.704 158.375,197.466 C 158.285,197.247 151.897,181.888 149.97,177.252 C 148.034,181.907 141.654,197.247 141.562,197.466 C 141.582,197.704 147.965,276.458 149.97,301.187 z "
           id="scarab_spine" />
        <path
           d="M 140.403,197.149 L 149.265,175.839 L 135.579,162.34 C 129.929,156.767 68.505,156.105 45.32,156.321 L 45.314,155.699 C 45.16,157.843 45.043,160.001 44.964,162.174 C 44.888,164.381 55.356,166.88 55.356,168.891 C 55.356,171.21 44.899,173.975 44.997,176.522 C 47.99,249.871 93.527,308.153 149.369,308.57 L 140.349,197.28 L 140.403,197.149 z "
           id="scarab_wing_left" />
        <path
           d="M 244.585,168.891 C 244.585,166.88 255.052,164.385 254.976,162.176 C 254.897,160.002 254.781,157.844 254.625,155.697 L 254.621,156.321 C 231.435,156.105 170.013,156.766 164.361,162.338 L 150.673,175.84 L 159.588,197.278 L 150.571,308.568 C 206.425,308.151 251.949,249.87 254.944,176.519 C 255.04,173.976 244.585,171.209 244.585,168.891 z "
           id="scarab_wing_right" />
        <path
           d="M 44.506,141.12 C 40.371,140.264 39.611,139.58 36.571,138.2 C 26.981,134.836 26.195,132.719 20.491,126.34 C 13.065,118.034 7.83,106.198 3.391,96.877 C -0.185,89.352 -0.593,80.468 0.531,72.604 C 1.522,65.669 7.675,59.735 12.605,53.684 C 18.449,46.493 22.961,38.862 30.529,32.33 C 38.265,25.648 53.732,22.521 56.697,12.682 C 57.86,8.819 54.334,1.766 61.482,0 C 61.116,4.703 65.121,8.477 63.879,13.575 C 62.75,18.202 59.511,19.386 54.268,22.674 C 46.704,27.42 35.902,31.453 29.52,36.639 C 22.345,42.466 25.151,50.41 18.951,56.696 C 16.95,58.726 11.05,61.402 9.814,63.526 C 7.953,66.725 9.517,73.098 9.698,76.646 C 10.123,84.93 15.286,90.89 19.253,98.691 C 23.405,106.832 25.682,114.1 32.664,121.21 C 36.847,125.472 44.093,126.012 48.874,131.857 L 45.319,136.043 L 44.506,141.12 z "
           id="scarab_leg_front_left" />
        <path
           d="M 43.94,191.922 L 43.131,184.576 C 33.625,179.997 32.792,174.804 22.393,172.11 C -1.335,165.959 1.032,183.36 6.861,198.483 C 12.537,213.209 15.098,228.713 21.206,243.278 C 24.011,249.966 28.125,256.491 35.504,258.405 C 35.876,249.97 34.587,247.754 29.391,241.486 C 24.996,236.193 26.065,228.938 23.319,222.982 C 19.738,215.178 19.123,207.336 16.04,199.48 C 14.677,196.001 7.71,185.514 9.588,181.619 C 12.771,175.016 18.766,181.536 21.767,183.696 C 25.985,186.732 28.234,185.919 33.448,186.594 C 34.041,186.673 37.005,188.756 43.94,191.922 z "
           id="scarab_leg_middle_left" />
        <path
           d="M 65.839,257.063 L 63.068,252.226 C 56.388,261.154 56.075,268.454 53.012,275.573 C 47.735,287.836 52.855,304.424 62.866,313.249 C 68.918,318.624 78.773,322.867 85.988,326.385 C 96.023,331.277 106.101,337.671 117.324,339.781 C 119.806,340.247 126.122,341.076 124.017,336.259 C 123.042,334.022 115.926,331.668 113.871,330.525 C 105.559,325.902 97.494,320.001 89.729,314.349 C 80.231,307.487 68.886,303.163 61.418,293.665 C 58.364,289.78 57.874,288.743 58.602,284.275 C 59.295,280.012 59.946,275.101 60.843,270.836 C 61.855,266.029 63.274,261.378 65.839,257.063 z "
           id="scarab_leg_back_left" />
        <path
           d="M 255.487,141.12 C 259.621,140.264 260.383,139.58 263.423,138.2 C 273.006,134.836 273.792,132.719 279.494,126.34 C 286.922,118.034 292.155,106.198 296.609,96.877 C 300.183,89.352 300.592,80.468 299.469,72.604 C 298.477,65.669 292.312,59.735 287.382,53.684 C 281.539,46.493 277.026,38.862 269.463,32.33 C 261.728,25.648 246.261,22.521 243.296,12.682 C 242.135,8.819 245.66,1.766 238.511,0 C 238.877,4.703 234.874,8.477 236.115,13.575 C 237.246,18.202 240.483,19.386 245.726,22.674 C 253.289,27.42 264.093,31.453 270.473,36.639 C 277.643,42.466 274.835,50.41 281.036,56.696 C 283.037,58.726 288.937,61.402 290.175,63.526 C 292.034,66.725 290.47,73.098 290.288,76.646 C 289.864,84.93 284.7,90.89 280.735,98.691 C 276.583,106.832 274.304,114.1 267.331,121.21 C 263.147,125.472 255.902,126.012 251.12,131.857 L 254.676,136.043 L 255.487,141.12 z "
           id="scarab_leg_front_right" />
        <path
           d="M 256.053,191.922 L 256.863,184.576 C 266.37,179.997 267.203,174.804 277.593,172.11 C 301.334,165.959 298.967,183.36 293.127,198.483 C 287.451,213.209 284.889,228.713 278.78,243.278 C 275.976,249.966 271.869,256.491 264.489,258.405 C 264.118,249.97 265.407,247.754 270.602,241.486 C 274.992,236.193 273.921,228.938 276.668,222.982 C 280.248,215.178 280.865,207.336 283.946,199.48 C 285.309,196.001 292.276,185.514 290.399,181.619 C 287.215,175.016 281.22,181.536 278.218,183.696 C 274.001,186.732 271.76,185.919 266.546,186.594 C 265.951,186.673 262.986,188.756 256.053,191.922 z "
           id="scarab_leg_middle_right" />
        <path
           d="M 234.155,257.063 L 236.926,252.226 C 243.605,261.154 243.917,268.454 246.983,275.573 C 252.257,287.836 247.137,304.424 237.129,313.249 C 231.074,318.624 221.226,322.867 214.012,326.385 C 203.978,331.277 193.885,337.671 182.661,339.781 C 180.18,340.247 173.872,341.076 175.97,336.259 C 176.946,334.022 184.062,331.668 186.116,330.525 C 194.428,325.902 202.508,320.001 210.271,314.349 C 219.769,307.487 231.109,303.163 238.576,293.665 C 241.631,289.78 242.119,288.743 241.394,284.275 C 240.698,280.012 240.048,275.101 239.15,270.836 C 238.137,266.029 236.718,261.378 234.155,257.063 z "
           id="scarab_leg_back_right" />
      </g>
    </g>
    <g
       id="scarab-red"
       style="fill:#cb2327">
      <g
         id="g2397"
         transform="translate(-150,-170)">
        <path
           id="path2399"
           d="M 205.599,94.567 C 205.599,82.899 180.685,73.438 149.971,73.438 C 119.248,73.438 94.347,82.898 94.347,94.567 C 94.347,104.77 119.248,101.913 149.971,101.913 C 180.685,101.913 205.599,104.233 205.599,94.567 z " />
        <path
           id="path2401"
           d="M 136.423,161.506 C 136.423,161.506 149.174,174.083 149.97,174.868 C 152.232,172.636 163.515,161.506 163.515,161.506 C 170.65,154.47 250.626,155.107 254.581,155.143 C 254.112,148.845 253.327,142.671 252.256,136.624 C 237.073,117.345 209.445,104.399 177.771,104.399 L 122.253,104.399 C 90.508,104.399 62.814,117.41 47.655,136.769 C 46.601,142.769 45.826,148.897 45.359,155.143 C 49.321,155.106 129.288,154.47 136.423,161.506 z " />
        <path
           id="path2403"
           d="M 149.97,301.187 C 151.975,276.458 158.356,197.704 158.375,197.466 C 158.285,197.247 151.897,181.888 149.97,177.252 C 148.034,181.907 141.654,197.247 141.562,197.466 C 141.582,197.704 147.965,276.458 149.97,301.187 z " />
        <path
           id="path2405"
           d="M 140.403,197.149 L 149.265,175.839 L 135.579,162.34 C 129.929,156.767 68.505,156.105 45.32,156.321 L 45.314,155.699 C 45.16,157.843 45.043,160.001 44.964,162.174 C 44.888,164.381 55.356,166.88 55.356,168.891 C 55.356,171.21 44.899,173.975 44.997,176.522 C 47.99,249.871 93.527,308.153 149.369,308.57 L 140.349,197.28 L 140.403,197.149 z " />
        <path
           id="path2407"
           d="M 244.585,168.891 C 244.585,166.88 255.052,164.385 254.976,162.176 C 254.897,160.002 254.781,157.844 254.625,155.697 L 254.621,156.321 C 231.435,156.105 170.013,156.766 164.361,162.338 L 150.673,175.84 L 159.588,197.278 L 150.571,308.568 C 206.425,308.151 251.949,249.87 254.944,176.519 C 255.04,173.976 244.585,171.209 244.585,168.891 z " />
        <path
           id="path2409"
           d="M 44.506,141.12 C 40.371,140.264 39.611,139.58 36.571,138.2 C 26.981,134.836 26.195,132.719 20.491,126.34 C 13.065,118.034 7.83,106.198 3.391,96.877 C -0.185,89.352 -0.593,80.468 0.531,72.604 C 1.522,65.669 7.675,59.735 12.605,53.684 C 18.449,46.493 22.961,38.862 30.529,32.33 C 38.265,25.648 53.732,22.521 56.697,12.682 C 57.86,8.819 54.334,1.766 61.482,0 C 61.116,4.703 65.121,8.477 63.879,13.575 C 62.75,18.202 59.511,19.386 54.268,22.674 C 46.704,27.42 35.902,31.453 29.52,36.639 C 22.345,42.466 25.151,50.41 18.951,56.696 C 16.95,58.726 11.05,61.402 9.814,63.526 C 7.953,66.725 9.517,73.098 9.698,76.646 C 10.123,84.93 15.286,90.89 19.253,98.691 C 23.405,106.832 25.682,114.1 32.664,121.21 C 36.847,125.472 44.093,126.012 48.874,131.857 L 45.319,136.043 L 44.506,141.12 z " />
        <path
           id="path2411"
           d="M 43.94,191.922 L 43.131,184.576 C 33.625,179.997 32.792,174.804 22.393,172.11 C -1.335,165.959 1.032,183.36 6.861,198.483 C 12.537,213.209 15.098,228.713 21.206,243.278 C 24.011,249.966 28.125,256.491 35.504,258.405 C 35.876,249.97 34.587,247.754 29.391,241.486 C 24.996,236.193 26.065,228.938 23.319,222.982 C 19.738,215.178 19.123,207.336 16.04,199.48 C 14.677,196.001 7.71,185.514 9.588,181.619 C 12.771,175.016 18.766,181.536 21.767,183.696 C 25.985,186.732 28.234,185.919 33.448,186.594 C 34.041,186.673 37.005,188.756 43.94,191.922 z " />
        <path
           id="path2413"
           d="M 65.839,257.063 L 63.068,252.226 C 56.388,261.154 56.075,268.454 53.012,275.573 C 47.735,287.836 52.855,304.424 62.866,313.249 C 68.918,318.624 78.773,322.867 85.988,326.385 C 96.023,331.277 106.101,337.671 117.324,339.781 C 119.806,340.247 126.122,341.076 124.017,336.259 C 123.042,334.022 115.926,331.668 113.871,330.525 C 105.559,325.902 97.494,320.001 89.729,314.349 C 80.231,307.487 68.886,303.163 61.418,293.665 C 58.364,289.78 57.874,288.743 58.602,284.275 C 59.295,280.012 59.946,275.101 60.843,270.836 C 61.855,266.029 63.274,261.378 65.839,257.063 z " />
        <path
           id="path2415"
           d="M 255.487,141.12 C 259.621,140.264 260.383,139.58 263.423,138.2 C 273.006,134.836 273.792,132.719 279.494,126.34 C 286.922,118.034 292.155,106.198 296.609,96.877 C 300.183,89.352 300.592,80.468 299.469,72.604 C 298.477,65.669 292.312,59.735 287.382,53.684 C 281.539,46.493 277.026,38.862 269.463,32.33 C 261.728,25.648 246.261,22.521 243.296,12.682 C 242.135,8.819 245.66,1.766 238.511,0 C 238.877,4.703 234.874,8.477 236.115,13.575 C 237.246,18.202 240.483,19.386 245.726,22.674 C 253.289,27.42 264.093,31.453 270.473,36.639 C 277.643,42.466 274.835,50.41 281.036,56.696 C 283.037,58.726 288.937,61.402 290.175,63.526 C 292.034,66.725 290.47,73.098 290.288,76.646 C 289.864,84.93 284.7,90.89 280.735,98.691 C 276.583,106.832 274.304,114.1 267.331,121.21 C 263.147,125.472 255.902,126.012 251.12,131.857 L 254.676,136.043 L 255.487,141.12 z " />
        <path
           id="path2417"
           d="M 256.053,191.922 L 256.863,184.576 C 266.37,179.997 267.203,174.804 277.593,172.11 C 301.334,165.959 298.967,183.36 293.127,198.483 C 287.451,213.209 284.889,228.713 278.78,243.278 C 275.976,249.966 271.869,256.491 264.489,258.405 C 264.118,249.97 265.407,247.754 270.602,241.486 C 274.992,236.193 273.921,228.938 276.668,222.982 C 280.248,215.178 280.865,207.336 283.946,199.48 C 285.309,196.001 292.276,185.514 290.399,181.619 C 287.215,175.016 281.22,181.536 278.218,183.696 C 274.001,186.732 271.76,185.919 266.546,186.594 C 265.951,186.673 262.986,188.756 256.053,191.922 z " />
        <path
           id="path2419"
           d="M 234.155,257.063 L 236.926,252.226 C 243.605,261.154 243.917,268.454 246.983,275.573 C 252.257,287.836 247.137,304.424 237.129,313.249 C 231.074,318.624 221.226,322.867 214.012,326.385 C 203.978,331.277 193.885,337.671 182.661,339.781 C 180.18,340.247 173.872,341.076 175.97,336.259 C 176.946,334.022 184.062,331.668 186.116,330.525 C 194.428,325.902 202.508,320.001 210.271,314.349 C 219.769,307.487 231.109,303.163 238.576,293.665 C 241.631,289.78 242.119,288.743 241.394,284.275 C 240.698,280.012 240.048,275.101 239.15,270.836 C 238.137,266.029 236.718,261.378 234.155,257.063 z " />
      </g>
    </g>
    <radialGradient
       cx="0"
       cy="0"
       r="60"
       fx="0"
       fy="0"
       id="radialGradient8608"
       gradientUnits="userSpaceOnUse">
      <stop
         style="stop-color:#9a9a9a;stop-opacity:1.0000000"
         offset="0.0000000"
         id="stop8610" />
      <stop
         style="stop-color:#bababa;stop-opacity:1.0000000"
         offset="0.69999999"
         id="stop8612" />
      <stop
         style="stop-color:#ffffff;stop-opacity:1.0000000"
         offset="0.94999999"
         id="stop8614" />
    </radialGradient>
    <g
       id="dung">
      <circle
         cx="0"
         cy="0"
         r="60"
         style="fill:url(#gradient_radial_dung)"
         id="circle1560"
         sodipodi:cx="0"
         sodipodi:cy="0"
         sodipodi:rx="60"
         sodipodi:ry="60" />
      <g
         transform="translate(-61,-61)"
         id="g1562">
        <path
           d="M 0,61 C 0,94.636 27.364,122 61,122 C 94.636,122 122,94.636 122,61 C 122,27.364 94.636,0 61,0 C 27.364,0 0,27.364 0,61 z M 2,61 C 2,28.467 28.467,2 61,2 C 93.532,2 120,28.467 120,61 C 120,93.533 93.532,120 61,120 C 28.467,120 2,93.533 2,61 z "
           style="fill:#8a8a8a"
           id="path1564" />
      </g>
      <use
         transform="scale(9,9)"
         id="use1566"
         x="0"
         y="0"
         width="310"
         height="410"
         xlink:href="#hacker_emblem" />
    </g>
    <g
       id="cairo_logo">
      <use
         transform="translate(0,-140)"
         id="use1569"
         x="0"
         y="0"
         width="310"
         height="410"
         xlink:href="#dung" />
      <use
         transform="translate(0,30)"
         id="use1571"
         x="0"
         y="0"
         width="310"
         height="410"
         xlink:href="#scarab" />
    </g>
    <g
       id="cairo_logo_dung-centered">
      <use
         id="use1574"
         x="0"
         y="0"
         width="310"
         height="410"
         xlink:href="#dung" />
      <use
         transform="translate(0,170)"
         id="use1576"
         x="0"
         y="0"
         width="310"
         height="410"
         xlink:href="#scarab" />
    </g>
    <g
       id="cairo_logo_scarab-centered">
      <use
         transform="translate(0,-175.85)"
         id="use1579"
         x="0"
         y="0"
         width="310"
         height="410"
         xlink:href="#dung" />
      <use
         transform="translate(0,-5.85)"
         id="use1581"
         x="0"
         y="0"
         width="310"
         height="410"
         xlink:href="#scarab" />
    </g>
    <g
       id="cairo_logo_top-centered">
      <use
         transform="translate(0,60)"
         id="use1584"
         x="0"
         y="0"
         width="310"
         height="410"
         xlink:href="#dung" />
      <use
         transform="translate(0,230)"
         id="use1586"
         x="0"
         y="0"
         width="310"
         height="410"
         xlink:href="#scarab" />
    </g>
    <g
       id="cairo_logo_bottom-centered">
      <use
         transform="translate(0,-340)"
         id="use1589"
         x="0"
         y="0"
         width="310"
         height="410"
         xlink:href="#dung" />
      <use
         transform="translate(0,-170)"
         id="use1591"
         x="0"
         y="0"
         width="310"
         height="410"
         xlink:href="#scarab" />
    </g>
    <g
       id="cairo_logo_right-centered">
      <use
         transform="translate(-150,-140)"
         id="use1594"
         x="0"
         y="0"
         width="310"
         height="410"
         xlink:href="#dung" />
      <use
         transform="translate(-150,30)"
         id="use1596"
         x="0"
         y="0"
         width="310"
         height="410"
         xlink:href="#scarab" />
    </g>
    <g
       id="cairo_logo_left-centered">
      <use
         transform="translate(150,-140)"
         id="use1599"
         x="0"
         y="0"
         width="310"
         height="410"
         xlink:href="#dung" />
      <use
         transform="translate(150,30)"
         id="use1601"
         x="0"
         y="0"
         width="310"
         height="410"
         xlink:href="#scarab" />
    </g>
    <g
       id="cairo_logo_topleft-centered">
      <use
         transform="translate(150,60)"
         id="use1604"
         x="0"
         y="0"
         width="310"
         height="410"
         xlink:href="#dung" />
      <use
         transform="translate(150,230)"
         id="use1606"
         x="0"
         y="0"
         width="310"
         height="410"
         xlink:href="#scarab" />
    </g>
    <g
       id="cairo_logo_topright-centered">
      <use
         transform="translate(-150,60)"
         id="use1609"
         x="0"
         y="0"
         width="310"
         height="410"
         xlink:href="#dung" />
      <use
         transform="translate(-150,230)"
         id="use1611"
         x="0"
         y="0"
         width="310"
         height="410"
         xlink:href="#scarab" />
    </g>
    <g
       id="cairo_logo_bottomleft-centered">
      <use
         transform="translate(150,-340)"
         id="use1614"
         x="0"
         y="0"
         width="310"
         height="410"
         xlink:href="#dung" />
      <use
         transform="translate(150,-170)"
         id="use1616"
         x="0"
         y="0"
         width="310"
         height="410"
         xlink:href="#scarab" />
    </g>
    <g
       id="cairo_logo_bottomright-centered">
      <use
         transform="translate(-150,-340)"
         id="use1619"
         x="0"
         y="0"
         width="310"
         height="410"
         xlink:href="#dung" />
      <use
         transform="translate(-150,-170)"
         id="use1621"
         x="0"
         y="0"
         width="310"
         height="410"
         xlink:href="#scarab" />
    </g>
    <g
       transform="translate(0,-97)"
       id="cairo_text">
      <g
         transform="scale(0.1484,0.1484)"
         id="g1624">
        <g
           transform="translate(-1139,-208.5)"
           id="g1626">
          <path
             d="M 412,433 C 385,422 336,413 298,413 C 142,413 38,525 38,680 C 38,826 144,947 298,947 C 332,947 377,944 416,926 L 409,842 C 380,861 340,871 308,871 C 187,871 138,771 138,680 C 138,583 197,489 302,489 C 332,489 368,496 404,511 L 412,433"
             transform="translate(65,0)"
             id="path1628" />
          <path
             d="M 109,541 C 147,509 204,489 257,489 C 351,489 383,534 383,622 C 346,620 320,620 283,620 C 186,620 46,660 46,788 C 46,899 123,947 233,947 C 319,947 369,900 391,869 L 393,869 L 393,935 L 481,935 C 479,920 477,893 477,835 L 477,624 C 477,485 418,413 272,413 C 207,413 151,433 104,461 L 109,541 M 383,737 C 383,813 334,871 241,871 C 198,871 146,842 146,788 C 146,698 272,690 323,690 C 343,690 363,692 383,692 L 383,737"
             transform="translate(486.75,0)"
             id="path1630" />
          <path
             d="M 92,935 L 186,935 L 186,425 L 92,425 L 92,935 M 88,261 C 88,232.83348 110.83348,210 139,210 C 167.16652,210 190,232.83348 190,261 C 190,289.16652 167.16652,312 139,312 C 110.83348,312 88,289.16652 88,261"
             transform="translate(1000,0)"
             id="path1632" />
          <path
             d="M 80,935 L 174,935 L 174,703 C 174,575 229,495 313,495 C 329,495 348,497 365,504 L 365,420 C 345,416 331,413 303,413 C 249,413 195,451 170,504 L 168,504 L 168,425 L 80,425 L 80,935"
             transform="translate(1234.25,0)"
             id="path1634" />
          <path
             d="M 46,680 C 46,826 152,947 306,947 C 459,947 565,826 565,680 C 565,525 461,413 306,413 C 150,413 46,525 46,680 M 146,680 C 146,583 205,489 306,489 C 406,489 465,583 465,680 C 465,771 416,871 306,871 C 195,871 146,771 146,680"
             transform="translate(1610,0)"
             id="path1636" />
        </g>
      </g>
    </g>
    <g
       transform="translate(0,-71)"
       id="cairo_text_small">
      <g
         transform="scale(8.5e-2,8.5e-2)"
         id="g1639">
        <g
           transform="translate(-1139,-208.5)"
           id="g1641">
          <path
             d="M 412,433 C 385,422 336,413 298,413 C 142,413 38,525 38,680 C 38,826 144,947 298,947 C 332,947 377,944 416,926 L 409,842 C 380,861 340,871 308,871 C 187,871 138,771 138,680 C 138,583 197,489 302,489 C 332,489 368,496 404,511 L 412,433"
             transform="translate(-151,0)"
             id="path1643" />
          <path
             d="M 109,541 C 147,509 204,489 257,489 C 351,489 383,534 383,622 C 346,620 320,620 283,620 C 186,620 46,660 46,788 C 46,899 123,947 233,947 C 319,947 369,900 391,869 L 393,869 L 393,935 L 481,935 C 479,920 477,893 477,835 L 477,624 C 477,485 418,413 272,413 C 207,413 151,433 104,461 L 109,541 M 383,737 C 383,813 334,871 241,871 C 198,871 146,842 146,788 C 146,698 272,690 323,690 C 343,690 363,692 383,692 L 383,737"
             transform="translate(379.5,0)"
             id="path1645" />
          <path
             d="M 92,935 L 186,935 L 186,425 L 92,425 L 92,935 M 88,261 C 88,232.83348 110.83348,210 139,210 C 167.16652,210 190,232.83348 190,261 C 190,289.16652 167.16652,312 139,312 C 110.83348,312 88,289.16652 88,261"
             transform="translate(1000,0)"
             id="path1647" />
          <path
             d="M 80,935 L 174,935 L 174,703 C 174,575 229,495 313,495 C 329,495 348,497 365,504 L 365,420 C 345,416 331,413 303,413 C 249,413 195,451 170,504 L 168,504 L 168,425 L 80,425 L 80,935"
             transform="translate(1341.5,0)"
             id="path1649" />
          <path
             d="M 46,680 C 46,826 152,947 306,947 C 459,947 565,826 565,680 C 565,525 461,413 306,413 C 150,413 46,525 46,680 M 146,680 C 146,583 205,489 306,489 C 406,489 465,583 465,680 C 465,771 416,871 306,871 C 195,871 146,771 146,680"
             transform="translate(1826,0)"
             id="path1651" />
        </g>
      </g>
    </g>
    <g
       id="cairo_logo_with_text">
      <use
         transform="translate(0,-245)"
         id="use1654"
         x="0"
         y="0"
         width="310"
         height="410"
         xlink:href="#cairo_logo_top-centered" />
      <use
         transform="translate(0,245)"
         id="use1656"
         x="0"
         y="0"
         width="310"
         height="410"
         xlink:href="#cairo_text" />
    </g>
    <g
       id="cairo_banner">
      <use
         id="use1659"
         x="0"
         y="0"
         width="310"
         height="410"
         xlink:href="#cairo_logo_bottomleft-centered" />
      <use
         transform="translate(0,42)"
         style="fill:#000000"
         id="use1661"
         x="0"
         y="0"
         width="310"
         height="410"
         xlink:href="#cairo_text_small" />
      <use
         id="use1663"
         x="0"
         y="0"
         width="310"
         height="410"
         xlink:href="#cairo_logo_bottomleft-centered" />
    </g>
  </defs>
  <sodipodi:namedview
     id="base"
     pagecolor="#ffffff"
     bordercolor="#666666"
     borderopacity="1.0"
     gridtolerance="10000"
     guidetolerance="10"
     objecttolerance="10"
     inkscape:pageopacity="0.0"
     inkscape:pageshadow="2"
     inkscape:zoom="2"
     inkscape:cx="125.64583"
     inkscape:cy="41.860467"
     inkscape:document-units="px"
     inkscape:current-layer="layer1"
     inkscape:window-width="856"
     inkscape:window-height="588"
     inkscape:window-x="6"
     inkscape:window-y="33" />
  <metadata
     id="metadata2703">
    <rdf:RDF>
      <cc:Work
         rdf:about="">
        <dc:format>image/svg+xml</dc:format>
        <dc:type
           rdf:resource="http://purl.org/dc/dcmitype/StillImage" />
      </cc:Work>
    </rdf:RDF>
  </metadata>
  <g
     inkscape:label="Layer 1"
     inkscape:groupmode="layer"
     id="layer1"
     transform="translate(-86.106772,-413.65985)">
    <use
       xlink:href="#scarab-red"
       height="410"
       width="310"
       y="0"
       x="0"
       id="use2310"
       transform="matrix(0.188169,0,0,0.188169,114.33664,455.74324)"
       inkscape:transform-center-x="-108.5"
       inkscape:transform-center-y="13.5"
       style="fill:#cb2327;fill-opacity:1" />
    <image
       y="413.65985"
       x="103.33656"
       id="image2388"
       height="22"
       width="22"
       sodipodi:absref="/home/kou/work/ruby/rcairo-doc/ruby-pink-circle.png"
       xlink:href="ruby-pink-circle.png" />
    <text
       id="text3454"
       y="481.83401"
       x="153.83664"
       style="font-size:32px;font-style:normal;font-weight:normal;fill:#000000;fill-opacity:1;stroke:none;stroke-width:1px;stroke-linecap:butt;stroke-linejoin:miter;stroke-opacity:1;filter:url(#filter3590);font-family:Sans"
       xml:space="preserve"><tspan
         y="481.83401"
         x="153.83664"
         id="tspan3456"
         sodipodi:role="line">rcairo</tspan></text>
    <text
       xml:space="preserve"
       style="font-size:32px;font-style:normal;font-weight:normal;fill:#cb2327;fill-opacity:1;stroke:none;stroke-width:1px;stroke-linecap:butt;stroke-linejoin:miter;stroke-opacity:1;font-family:Sans"
       x="151.83664"
       y="479.83401"
       id="text3450"><tspan
         sodipodi:role="line"
         id="tspan3452"
         x="151.83664"
         y="479.83401">rcairo</tspan></text>
  </g>
</svg>
