<?xml version="1.0" encoding="UTF-8" standalone="no"?>
<!-- Created with Inkscape (http://www.inkscape.org/) -->

<svg
   xmlns:dc="http://purl.org/dc/elements/1.1/"
   xmlns:cc="http://creativecommons.org/ns#"
   xmlns:rdf="http://www.w3.org/1999/02/22-rdf-syntax-ns#"
   xmlns:svg="http://www.w3.org/2000/svg"
   xmlns="http://www.w3.org/2000/svg"
   xmlns:xlink="http://www.w3.org/1999/xlink"
   xmlns:sodipodi="http://sodipodi.sourceforge.net/DTD/sodipodi-0.dtd"
   xmlns:inkscape="http://www.inkscape.org/namespaces/inkscape"
   width="84.459579"
   height="84.099625"
   id="svg2698"
   sodipodi:version="0.32"
   inkscape:version="0.91 r13725"
   sodipodi:docname="rcairo-logo.svg"
   version="1.0"
   inkscape:output_extension="org.inkscape.output.svg.inkscape"
   inkscape:export-filename="rcairo-logo.png"
   inkscape:export-xdpi="600.00305"
   inkscape:export-ydpi="600.00305"
   sodipodi:modified="TRUE">
  <defs
     id="defs2700">
    <linearGradient
       id="linearGradient3598">
      <stop
         style="stop-color:#cb2327;stop-opacity:0.47843137;"
         offset="0"
         id="stop3600" />
      <stop
         id="stop3606"
         offset="0.63636363"
         style="stop-color:#cb2327;stop-opacity:0.49803922;" />
      <stop
         style="stop-color:#cb2327;stop-opacity:0;"
         offset="1"
         id="stop3602" />
    </linearGradient>
    <marker
       inkscape:stockid="Arrow1Send"
       orient="auto"
       refY="0"
       refX="0"
       id="Arrow1Send"
       style="overflow:visible">
      <path
         id="path9812"
         d="M 0,0 5,-5 -12.5,0 5,5 0,0 Z"
         style="fill-rule:evenodd;stroke:#000000;stroke-width:1pt;marker-start:none"
         transform="matrix(-0.2,0,0,-0.2,-1.2,0)"
         inkscape:connector-curvature="0" />
    </marker>
    <marker
       inkscape:stockid="Arrow1Lend"
       orient="auto"
       refY="0"
       refX="0"
       id="Arrow1Lend"
       style="overflow:visible">
      <path
         id="path9824"
         d="M 0,0 5,-5 -12.5,0 5,5 0,0 Z"
         style="fill-rule:evenodd;stroke:#000000;stroke-width:1pt;marker-start:none"
         transform="matrix(-0.8,0,0,-0.8,-10,0)"
         inkscape:connector-curvature="0" />
    </marker>
    <marker
       inkscape:stockid="Arrow1Mend"
       orient="auto"
       refY="0"
       refX="0"
       id="Arrow1Mend"
       style="overflow:visible">
      <path
         id="path9818"
         d="M 0,0 5,-5 -12.5,0 5,5 0,0 Z"
         style="fill-rule:evenodd;stroke:#000000;stroke-width:1pt;marker-start:none"
         transform="matrix(-0.4,0,0,-0.4,-4,0)"
         inkscape:connector-curvature="0" />
    </marker>
    <radialGradient
       cx="0"
       cy="0"
       r="60"
       fx="0"
       fy="0"
       id="gradient_radial_dung"
       gradientUnits="userSpaceOnUse">
      <stop
         style="stop-color:#9a9a9a;stop-opacity:1.0000000"
         offset="0.0000000"
         id="stop1553" />
      <stop
         style="stop-color:#bababa;stop-opacity:1.0000000"
         offset="0.69999999"
         id="stop1555" />
      <stop
         style="stop-color:#ffffff;stop-opacity:1.0000000"
         offset="0.94999999"
         id="stop1557" />
    </radialGradient>
    <linearGradient
       id="linearGradient2832">
      <stop
         id="stop2834"
         offset="0.0000000"
         style="stop-color:#ffffff;stop-opacity:1.0000000;" />
      <stop
         id="stop2836"
         offset="1.0000000"
         style="stop-color:#ffffff;stop-opacity:0.0000000;" />
    </linearGradient>
    <linearGradient
       id="linearGradient1401"
       gradientTransform="scale(1.288859,0.77588)"
       x1="16.488155"
       y1="82.751862"
       x2="107.28166"
       y2="82.751862"
       gradientUnits="userSpaceOnUse">
      <stop
         id="stop1403"
         offset="0.0000000"
         style="stop-color:#46a046;stop-opacity:1.0000000;" />
      <stop
         id="stop1405"
         offset="0.39364964"
         style="stop-color:#df421e;stop-opacity:1.0000000;" />
      <stop
         id="stop1407"
         offset="0.72036445"
         style="stop-color:#ada7c8;stop-opacity:1.0000000;" />
      <stop
         id="stop1409"
         offset="1.0000000"
         style="stop-color:#eed680;stop-opacity:1.0000000;" />
    </linearGradient>
    <linearGradient
       inkscape:collect="always"
       xlink:href="#linearGradient3598"
       id="linearGradient3604"
       x1="200.28976"
       y1="-455.2403"
       x2="200.28976"
       y2="-480.9238"
       gradientUnits="userSpaceOnUse"
       gradientTransform="matrix(0.8349616,0,1.9809198e-8,0.8349616,-549.18691,-168.11845)" />
  </defs>
  <defs
     id="cairo-artwork_defs">
    <g
       id="hacker_emblem">
      <g
         style="fill:#ffffff;stroke:none"
         id="hacker_emblem_grid">
        <rect
           width="6"
           height="0.1"
           x="-2.95"
           y="-3.05"
           id="rect1503" />
        <rect
           width="0.1"
           height="6"
           x="2.95"
           y="-2.95"
           id="rect1505" />
        <rect
           width="6"
           height="0.1"
           x="-3.05"
           y="2.95"
           id="rect1507" />
        <rect
           width="0.1"
           height="6"
           x="-3.05"
           y="-3.05"
           id="rect1509" />
        <rect
           width="0.1"
           height="5.9000001"
           x="-1.05"
           y="-2.95"
           id="rect1511" />
        <rect
           width="0.1"
           height="5.9000001"
           x="0.94999999"
           y="-2.95"
           id="rect1513" />
        <rect
           width="1.9"
           height="0.1"
           x="-2.95"
           y="-1.05"
           id="rect1515" />
        <rect
           width="1.9"
           height="0.1"
           x="-0.94999999"
           y="-1.05"
           id="rect1517" />
        <rect
           width="1.9"
           height="0.1"
           x="1.05"
           y="-1.05"
           id="rect1519" />
        <rect
           width="1.9"
           height="0.1"
           x="-2.95"
           y="0.94999999"
           id="rect1521" />
        <rect
           width="1.9"
           height="0.1"
           x="-0.94999999"
           y="0.94999999"
           id="rect1523" />
        <rect
           width="1.9"
           height="0.1"
           x="1.05"
           y="0.94999999"
           id="rect1525" />
      </g>
      <g
         style="fill:#ffffff"
         id="hacker_emblem_dots">
        <circle
           cx="0"
           cy="-2"
           r="0.69999999"
           id="circle1528" />
        <circle
           cx="2"
           cy="0"
           r="0.69999999"
           id="circle1530" />
        <circle
           cx="-2"
           cy="2"
           r="0.69999999"
           id="circle1532" />
        <circle
           cx="0"
           cy="2"
           r="0.69999999"
           id="circle1534" />
        <circle
           cx="2"
           cy="2"
           r="0.69999999"
           id="circle1536" />
      </g>
    </g>
    <g
       style="fill:#3b80ae"
       id="scarab">
      <g
         transform="translate(-150,-170)"
         id="g1539">
        <path
           d="m 205.599,94.567 c 0,-11.668 -24.914,-21.129 -55.628,-21.129 -30.723,0 -55.624,9.46 -55.624,21.129 0,10.203 24.901,7.346 55.624,7.346 30.714,0 55.628,2.32 55.628,-7.346 z"
           id="scarab_head"
           inkscape:connector-curvature="0" />
        <path
           d="m 136.423,161.506 c 0,0 12.751,12.577 13.547,13.362 2.262,-2.232 13.545,-13.362 13.545,-13.362 7.135,-7.036 87.111,-6.399 91.066,-6.363 -0.469,-6.298 -1.254,-12.472 -2.325,-18.519 -15.183,-19.279 -42.811,-32.225 -74.485,-32.225 l -55.518,0 c -31.745,0 -59.439,13.011 -74.598,32.37 -1.054,6 -1.829,12.128 -2.296,18.374 3.962,-0.037 83.929,-0.673 91.064,6.363 z"
           id="scarab_torso"
           inkscape:connector-curvature="0" />
        <path
           d="m 149.97,301.187 c 2.005,-24.729 8.386,-103.483 8.405,-103.721 -0.09,-0.219 -6.478,-15.578 -8.405,-20.214 -1.936,4.655 -8.316,19.995 -8.408,20.214 0.02,0.238 6.403,78.992 8.408,103.721 z"
           id="scarab_spine"
           inkscape:connector-curvature="0" />
        <path
           d="m 140.403,197.149 8.862,-21.31 -13.686,-13.499 c -5.65,-5.573 -67.074,-6.235 -90.259,-6.019 l -0.006,-0.622 c -0.154,2.144 -0.271,4.302 -0.35,6.475 -0.076,2.207 10.392,4.706 10.392,6.717 0,2.319 -10.457,5.084 -10.359,7.631 2.993,73.349 48.53,131.631 104.372,132.048 l -9.02,-111.29 0.054,-0.131 z"
           id="scarab_wing_left"
           inkscape:connector-curvature="0" />
        <path
           d="m 244.585,168.891 c 0,-2.011 10.467,-4.506 10.391,-6.715 -0.079,-2.174 -0.195,-4.332 -0.351,-6.479 l -0.004,0.624 c -23.186,-0.216 -84.608,0.445 -90.26,6.017 l -13.688,13.502 8.915,21.438 -9.017,111.29 c 55.854,-0.417 101.378,-58.698 104.373,-132.049 0.096,-2.543 -10.359,-5.31 -10.359,-7.628 z"
           id="scarab_wing_right"
           inkscape:connector-curvature="0" />
        <path
           d="m 44.506,141.12 c -4.135,-0.856 -4.895,-1.54 -7.935,-2.92 -9.59,-3.364 -10.376,-5.481 -16.08,-11.86 C 13.065,118.034 7.83,106.198 3.391,96.877 -0.185,89.352 -0.593,80.468 0.531,72.604 1.522,65.669 7.675,59.735 12.605,53.684 18.449,46.493 22.961,38.862 30.529,32.33 38.265,25.648 53.732,22.521 56.697,12.682 57.86,8.819 54.334,1.766 61.482,0 c -0.366,4.703 3.639,8.477 2.397,13.575 -1.129,4.627 -4.368,5.811 -9.611,9.099 -7.564,4.746 -18.366,8.779 -24.748,13.965 -7.175,5.827 -4.369,13.771 -10.569,20.057 -2.001,2.03 -7.901,4.706 -9.137,6.83 -1.861,3.199 -0.297,9.572 -0.116,13.12 0.425,8.284 5.588,14.244 9.555,22.045 4.152,8.141 6.429,15.409 13.411,22.519 4.183,4.262 11.429,4.802 16.21,10.647 l -3.555,4.186 -0.813,5.077 z"
           id="scarab_leg_front_left"
           inkscape:connector-curvature="0" />
        <path
           d="m 43.94,191.922 -0.809,-7.346 C 33.625,179.997 32.792,174.804 22.393,172.11 -1.335,165.959 1.032,183.36 6.861,198.483 c 5.676,14.726 8.237,30.23 14.345,44.795 2.805,6.688 6.919,13.213 14.298,15.127 0.372,-8.435 -0.917,-10.651 -6.113,-16.919 -4.395,-5.293 -3.326,-12.548 -6.072,-18.504 -3.581,-7.804 -4.196,-15.646 -7.279,-23.502 -1.363,-3.479 -8.33,-13.966 -6.452,-17.861 3.183,-6.603 9.178,-0.083 12.179,2.077 4.218,3.036 6.467,2.223 11.681,2.898 0.593,0.079 3.557,2.162 10.492,5.328 z"
           id="scarab_leg_middle_left"
           inkscape:connector-curvature="0" />
        <path
           d="m 65.839,257.063 -2.771,-4.837 c -6.68,8.928 -6.993,16.228 -10.056,23.347 -5.277,12.263 -0.157,28.851 9.854,37.676 6.052,5.375 15.907,9.618 23.122,13.136 10.035,4.892 20.113,11.286 31.336,13.396 2.482,0.466 8.798,1.295 6.693,-3.522 -0.975,-2.237 -8.091,-4.591 -10.146,-5.734 -8.312,-4.623 -16.377,-10.524 -24.142,-16.176 -9.498,-6.862 -20.843,-11.186 -28.311,-20.684 -3.054,-3.885 -3.544,-4.922 -2.816,-9.39 0.693,-4.263 1.344,-9.174 2.241,-13.439 1.012,-4.807 2.431,-9.458 4.996,-13.773 z"
           id="scarab_leg_back_left"
           inkscape:connector-curvature="0" />
        <path
           d="m 255.487,141.12 c 4.134,-0.856 4.896,-1.54 7.936,-2.92 9.583,-3.364 10.369,-5.481 16.071,-11.86 7.428,-8.306 12.661,-20.142 17.115,-29.463 3.574,-7.525 3.983,-16.409 2.86,-24.273 -0.992,-6.935 -7.157,-12.869 -12.087,-18.92 C 281.539,46.493 277.026,38.862 269.463,32.33 261.728,25.648 246.261,22.521 243.296,12.682 242.135,8.819 245.66,1.766 238.511,0 c 0.366,4.703 -3.637,8.477 -2.396,13.575 1.131,4.627 4.368,5.811 9.611,9.099 7.563,4.746 18.367,8.779 24.747,13.965 7.17,5.827 4.362,13.771 10.563,20.057 2.001,2.03 7.901,4.706 9.139,6.83 1.859,3.199 0.295,9.572 0.113,13.12 -0.424,8.284 -5.588,14.244 -9.553,22.045 -4.152,8.141 -6.431,15.409 -13.404,22.519 -4.184,4.262 -11.429,4.802 -16.211,10.647 l 3.556,4.186 0.811,5.077 z"
           id="scarab_leg_front_right"
           inkscape:connector-curvature="0" />
        <path
           d="m 256.053,191.922 0.81,-7.346 c 9.507,-4.579 10.34,-9.772 20.73,-12.466 23.741,-6.151 21.374,11.25 15.534,26.373 -5.676,14.726 -8.238,30.23 -14.347,44.795 -2.804,6.688 -6.911,13.213 -14.291,15.127 -0.371,-8.435 0.918,-10.651 6.113,-16.919 4.39,-5.293 3.319,-12.548 6.066,-18.504 3.58,-7.804 4.197,-15.646 7.278,-23.502 1.363,-3.479 8.33,-13.966 6.453,-17.861 -3.184,-6.603 -9.179,-0.083 -12.181,2.077 -4.217,3.036 -6.458,2.223 -11.672,2.898 -0.595,0.079 -3.56,2.162 -10.493,5.328 z"
           id="scarab_leg_middle_right"
           inkscape:connector-curvature="0" />
        <path
           d="m 234.155,257.063 2.771,-4.837 c 6.679,8.928 6.991,16.228 10.057,23.347 5.274,12.263 0.154,28.851 -9.854,37.676 -6.055,5.375 -15.903,9.618 -23.117,13.136 -10.034,4.892 -20.127,11.286 -31.351,13.396 -2.481,0.466 -8.789,1.295 -6.691,-3.522 0.976,-2.237 8.092,-4.591 10.146,-5.734 8.312,-4.623 16.392,-10.524 24.155,-16.176 9.498,-6.862 20.838,-11.186 28.305,-20.684 3.055,-3.885 3.543,-4.922 2.818,-9.39 -0.696,-4.263 -1.346,-9.174 -2.244,-13.439 -1.013,-4.807 -2.432,-9.458 -4.995,-13.773 z"
           id="scarab_leg_back_right"
           inkscape:connector-curvature="0" />
      </g>
    </g>
    <g
       id="scarab-red"
       style="fill:#cb2327">
      <g
         id="g2397"
         transform="translate(-150,-170)">
        <path
           id="path2399"
           d="m 205.599,94.567 c 0,-11.668 -24.914,-21.129 -55.628,-21.129 -30.723,0 -55.624,9.46 -55.624,21.129 0,10.203 24.901,7.346 55.624,7.346 30.714,0 55.628,2.32 55.628,-7.346 z"
           inkscape:connector-curvature="0" />
        <path
           id="path2401"
           d="m 136.423,161.506 c 0,0 12.751,12.577 13.547,13.362 2.262,-2.232 13.545,-13.362 13.545,-13.362 7.135,-7.036 87.111,-6.399 91.066,-6.363 -0.469,-6.298 -1.254,-12.472 -2.325,-18.519 -15.183,-19.279 -42.811,-32.225 -74.485,-32.225 l -55.518,0 c -31.745,0 -59.439,13.011 -74.598,32.37 -1.054,6 -1.829,12.128 -2.296,18.374 3.962,-0.037 83.929,-0.673 91.064,6.363 z"
           inkscape:connector-curvature="0" />
        <path
           id="path2403"
           d="m 149.97,301.187 c 2.005,-24.729 8.386,-103.483 8.405,-103.721 -0.09,-0.219 -6.478,-15.578 -8.405,-20.214 -1.936,4.655 -8.316,19.995 -8.408,20.214 0.02,0.238 6.403,78.992 8.408,103.721 z"
           inkscape:connector-curvature="0" />
        <path
           id="path2405"
           d="m 140.403,197.149 8.862,-21.31 -13.686,-13.499 c -5.65,-5.573 -67.074,-6.235 -90.259,-6.019 l -0.006,-0.622 c -0.154,2.144 -0.271,4.302 -0.35,6.475 -0.076,2.207 10.392,4.706 10.392,6.717 0,2.319 -10.457,5.084 -10.359,7.631 2.993,73.349 48.53,131.631 104.372,132.048 l -9.02,-111.29 0.054,-0.131 z"
           inkscape:connector-curvature="0" />
        <path
           id="path2407"
           d="m 244.585,168.891 c 0,-2.011 10.467,-4.506 10.391,-6.715 -0.079,-2.174 -0.195,-4.332 -0.351,-6.479 l -0.004,0.624 c -23.186,-0.216 -84.608,0.445 -90.26,6.017 l -13.688,13.502 8.915,21.438 -9.017,111.29 c 55.854,-0.417 101.378,-58.698 104.373,-132.049 0.096,-2.543 -10.359,-5.31 -10.359,-7.628 z"
           inkscape:connector-curvature="0" />
        <path
           id="path2409"
           d="m 44.506,141.12 c -4.135,-0.856 -4.895,-1.54 -7.935,-2.92 -9.59,-3.364 -10.376,-5.481 -16.08,-11.86 C 13.065,118.034 7.83,106.198 3.391,96.877 -0.185,89.352 -0.593,80.468 0.531,72.604 1.522,65.669 7.675,59.735 12.605,53.684 18.449,46.493 22.961,38.862 30.529,32.33 38.265,25.648 53.732,22.521 56.697,12.682 57.86,8.819 54.334,1.766 61.482,0 c -0.366,4.703 3.639,8.477 2.397,13.575 -1.129,4.627 -4.368,5.811 -9.611,9.099 -7.564,4.746 -18.366,8.779 -24.748,13.965 -7.175,5.827 -4.369,13.771 -10.569,20.057 -2.001,2.03 -7.901,4.706 -9.137,6.83 -1.861,3.199 -0.297,9.572 -0.116,13.12 0.425,8.284 5.588,14.244 9.555,22.045 4.152,8.141 6.429,15.409 13.411,22.519 4.183,4.262 11.429,4.802 16.21,10.647 l -3.555,4.186 -0.813,5.077 z"
           inkscape:connector-curvature="0" />
        <path
           id="path2411"
           d="m 43.94,191.922 -0.809,-7.346 C 33.625,179.997 32.792,174.804 22.393,172.11 -1.335,165.959 1.032,183.36 6.861,198.483 c 5.676,14.726 8.237,30.23 14.345,44.795 2.805,6.688 6.919,13.213 14.298,15.127 0.372,-8.435 -0.917,-10.651 -6.113,-16.919 -4.395,-5.293 -3.326,-12.548 -6.072,-18.504 -3.581,-7.804 -4.196,-15.646 -7.279,-23.502 -1.363,-3.479 -8.33,-13.966 -6.452,-17.861 3.183,-6.603 9.178,-0.083 12.179,2.077 4.218,3.036 6.467,2.223 11.681,2.898 0.593,0.079 3.557,2.162 10.492,5.328 z"
           inkscape:connector-curvature="0" />
        <path
           id="path2413"
           d="m 65.839,257.063 -2.771,-4.837 c -6.68,8.928 -6.993,16.228 -10.056,23.347 -5.277,12.263 -0.157,28.851 9.854,37.676 6.052,5.375 15.907,9.618 23.122,13.136 10.035,4.892 20.113,11.286 31.336,13.396 2.482,0.466 8.798,1.295 6.693,-3.522 -0.975,-2.237 -8.091,-4.591 -10.146,-5.734 -8.312,-4.623 -16.377,-10.524 -24.142,-16.176 -9.498,-6.862 -20.843,-11.186 -28.311,-20.684 -3.054,-3.885 -3.544,-4.922 -2.816,-9.39 0.693,-4.263 1.344,-9.174 2.241,-13.439 1.012,-4.807 2.431,-9.458 4.996,-13.773 z"
           inkscape:connector-curvature="0" />
        <path
           id="path2415"
           d="m 255.487,141.12 c 4.134,-0.856 4.896,-1.54 7.936,-2.92 9.583,-3.364 10.369,-5.481 16.071,-11.86 7.428,-8.306 12.661,-20.142 17.115,-29.463 3.574,-7.525 3.983,-16.409 2.86,-24.273 -0.992,-6.935 -7.157,-12.869 -12.087,-18.92 C 281.539,46.493 277.026,38.862 269.463,32.33 261.728,25.648 246.261,22.521 243.296,12.682 242.135,8.819 245.66,1.766 238.511,0 c 0.366,4.703 -3.637,8.477 -2.396,13.575 1.131,4.627 4.368,5.811 9.611,9.099 7.563,4.746 18.367,8.779 24.747,13.965 7.17,5.827 4.362,13.771 10.563,20.057 2.001,2.03 7.901,4.706 9.139,6.83 1.859,3.199 0.295,9.572 0.113,13.12 -0.424,8.284 -5.588,14.244 -9.553,22.045 -4.152,8.141 -6.431,15.409 -13.404,22.519 -4.184,4.262 -11.429,4.802 -16.211,10.647 l 3.556,4.186 0.811,5.077 z"
           inkscape:connector-curvature="0" />
        <path
           id="path2417"
           d="m 256.053,191.922 0.81,-7.346 c 9.507,-4.579 10.34,-9.772 20.73,-12.466 23.741,-6.151 21.374,11.25 15.534,26.373 -5.676,14.726 -8.238,30.23 -14.347,44.795 -2.804,6.688 -6.911,13.213 -14.291,15.127 -0.371,-8.435 0.918,-10.651 6.113,-16.919 4.39,-5.293 3.319,-12.548 6.066,-18.504 3.58,-7.804 4.197,-15.646 7.278,-23.502 1.363,-3.479 8.33,-13.966 6.453,-17.861 -3.184,-6.603 -9.179,-0.083 -12.181,2.077 -4.217,3.036 -6.458,2.223 -11.672,2.898 -0.595,0.079 -3.56,2.162 -10.493,5.328 z"
           inkscape:connector-curvature="0" />
        <path
           id="path2419"
           d="m 234.155,257.063 2.771,-4.837 c 6.679,8.928 6.991,16.228 10.057,23.347 5.274,12.263 0.154,28.851 -9.854,37.676 -6.055,5.375 -15.903,9.618 -23.117,13.136 -10.034,4.892 -20.127,11.286 -31.351,13.396 -2.481,0.466 -8.789,1.295 -6.691,-3.522 0.976,-2.237 8.092,-4.591 10.146,-5.734 8.312,-4.623 16.392,-10.524 24.155,-16.176 9.498,-6.862 20.838,-11.186 28.305,-20.684 3.055,-3.885 3.543,-4.922 2.818,-9.39 -0.696,-4.263 -1.346,-9.174 -2.244,-13.439 -1.013,-4.807 -2.432,-9.458 -4.995,-13.773 z"
           inkscape:connector-curvature="0" />
      </g>
    </g>
    <radialGradient
       cx="0"
       cy="0"
       r="60"
       fx="0"
       fy="0"
       id="radialGradient8608"
       gradientUnits="userSpaceOnUse">
      <stop
         style="stop-color:#9a9a9a;stop-opacity:1.0000000"
         offset="0.0000000"
         id="stop8610" />
      <stop
         style="stop-color:#bababa;stop-opacity:1.0000000"
         offset="0.69999999"
         id="stop8612" />
      <stop
         style="stop-color:#ffffff;stop-opacity:1.0000000"
         offset="0.94999999"
         id="stop8614" />
    </radialGradient>
    <g
       id="dung">
      <circle
         cx="0"
         cy="0"
         r="60"
         style="fill:url(#gradient_radial_dung)"
         id="circle1560" />
      <g
         transform="translate(-61,-61)"
         id="g1562">
        <path
           d="m 0,61 c 0,33.636 27.364,61 61,61 33.636,0 61,-27.364 61,-61 C 122,27.364 94.636,0 61,0 27.364,0 0,27.364 0,61 Z m 2,0 C 2,28.467 28.467,2 61,2 93.532,2 120,28.467 120,61 120,93.533 93.532,120 61,120 28.467,120 2,93.533 2,61 Z"
           style="fill:#8a8a8a"
           id="path1564"
           inkscape:connector-curvature="0" />
      </g>
      <use
         transform="scale(9,9)"
         id="use1566"
         x="0"
         y="0"
         width="310"
         height="410"
         xlink:href="#hacker_emblem" />
    </g>
    <g
       id="cairo_logo">
      <use
         transform="translate(0,-140)"
         id="use1569"
         x="0"
         y="0"
         width="310"
         height="410"
         xlink:href="#dung" />
      <use
         transform="translate(0,30)"
         id="use1571"
         x="0"
         y="0"
         width="310"
         height="410"
         xlink:href="#scarab" />
    </g>
    <g
       id="cairo_logo_dung-centered">
      <use
         id="use1574"
         x="0"
         y="0"
         width="310"
         height="410"
         xlink:href="#dung" />
      <use
         transform="translate(0,170)"
         id="use1576"
         x="0"
         y="0"
         width="310"
         height="410"
         xlink:href="#scarab" />
    </g>
    <g
       id="cairo_logo_scarab-centered">
      <use
         transform="translate(0,-175.85)"
         id="use1579"
         x="0"
         y="0"
         width="310"
         height="410"
         xlink:href="#dung" />
      <use
         transform="translate(0,-5.85)"
         id="use1581"
         x="0"
         y="0"
         width="310"
         height="410"
         xlink:href="#scarab" />
    </g>
    <g
       id="cairo_logo_top-centered">
      <use
         transform="translate(0,60)"
         id="use1584"
         x="0"
         y="0"
         width="310"
         height="410"
         xlink:href="#dung" />
      <use
         transform="translate(0,230)"
         id="use1586"
         x="0"
         y="0"
         width="310"
         height="410"
         xlink:href="#scarab" />
    </g>
    <g
       id="cairo_logo_bottom-centered">
      <use
         transform="translate(0,-340)"
         id="use1589"
         x="0"
         y="0"
         width="310"
         height="410"
         xlink:href="#dung" />
      <use
         transform="translate(0,-170)"
         id="use1591"
         x="0"
         y="0"
         width="310"
         height="410"
         xlink:href="#scarab" />
    </g>
    <g
       id="cairo_logo_right-centered">
      <use
         transform="translate(-150,-140)"
         id="use1594"
         x="0"
         y="0"
         width="310"
         height="410"
         xlink:href="#dung" />
      <use
         transform="translate(-150,30)"
         id="use1596"
         x="0"
         y="0"
         width="310"
         height="410"
         xlink:href="#scarab" />
    </g>
    <g
       id="cairo_logo_left-centered">
      <use
         transform="translate(150,-140)"
         id="use1599"
         x="0"
         y="0"
         width="310"
         height="410"
         xlink:href="#dung" />
      <use
         transform="translate(150,30)"
         id="use1601"
         x="0"
         y="0"
         width="310"
         height="410"
         xlink:href="#scarab" />
    </g>
    <g
       id="cairo_logo_topleft-centered">
      <use
         transform="translate(150,60)"
         id="use1604"
         x="0"
         y="0"
         width="310"
         height="410"
         xlink:href="#dung" />
      <use
         transform="translate(150,230)"
         id="use1606"
         x="0"
         y="0"
         width="310"
         height="410"
         xlink:href="#scarab" />
    </g>
    <g
       id="cairo_logo_topright-centered">
      <use
         transform="translate(-150,60)"
         id="use1609"
         x="0"
         y="0"
         width="310"
         height="410"
         xlink:href="#dung" />
      <use
         transform="translate(-150,230)"
         id="use1611"
         x="0"
         y="0"
         width="310"
         height="410"
         xlink:href="#scarab" />
    </g>
    <g
       id="cairo_logo_bottomleft-centered">
      <use
         transform="translate(150,-340)"
         id="use1614"
         x="0"
         y="0"
         width="310"
         height="410"
         xlink:href="#dung" />
      <use
         transform="translate(150,-170)"
         id="use1616"
         x="0"
         y="0"
         width="310"
         height="410"
         xlink:href="#scarab" />
    </g>
    <g
       id="cairo_logo_bottomright-centered">
      <use
         transform="translate(-150,-340)"
         id="use1619"
         x="0"
         y="0"
         width="310"
         height="410"
         xlink:href="#dung" />
      <use
         transform="translate(-150,-170)"
         id="use1621"
         x="0"
         y="0"
         width="310"
         height="410"
         xlink:href="#scarab" />
    </g>
    <g
       transform="translate(0,-97)"
       id="cairo_text">
      <g
         transform="scale(0.1484,0.1484)"
         id="g1624">
        <g
           transform="translate(-1139,-208.5)"
           id="g1626">
          <path
             d="M 412,433 C 385,422 336,413 298,413 142,413 38,525 38,680 c 0,146 106,267 260,267 34,0 79,-3 118,-21 l -7,-84 c -29,19 -69,29 -101,29 -121,0 -170,-100 -170,-191 0,-97 59,-191 164,-191 30,0 66,7 102,22 l 8,-78"
             transform="translate(65,0)"
             id="path1628"
             inkscape:connector-curvature="0" />
          <path
             d="m 109,541 c 38,-32 95,-52 148,-52 94,0 126,45 126,133 -37,-2 -63,-2 -100,-2 -97,0 -237,40 -237,168 0,111 77,159 187,159 86,0 136,-47 158,-78 l 2,0 0,66 88,0 c -2,-15 -4,-42 -4,-100 l 0,-211 c 0,-139 -59,-211 -205,-211 -65,0 -121,20 -168,48 l 5,80 m 274,196 c 0,76 -49,134 -142,134 -43,0 -95,-29 -95,-83 0,-90 126,-98 177,-98 20,0 40,2 60,2 l 0,45"
             transform="translate(486.75,0)"
             id="path1630"
             inkscape:connector-curvature="0" />
          <path
             d="m 92,935 94,0 0,-510 -94,0 0,510 M 88,261 c 0,-28.16652 22.83348,-51 51,-51 28.16652,0 51,22.83348 51,51 0,28.16652 -22.83348,51 -51,51 -28.16652,0 -51,-22.83348 -51,-51"
             transform="translate(1000,0)"
             id="path1632"
             inkscape:connector-curvature="0" />
          <path
             d="m 80,935 94,0 0,-232 c 0,-128 55,-208 139,-208 16,0 35,2 52,9 l 0,-84 c -20,-4 -34,-7 -62,-7 -54,0 -108,38 -133,91 l -2,0 0,-79 -88,0 0,510"
             transform="translate(1234.25,0)"
             id="path1634"
             inkscape:connector-curvature="0" />
          <path
             d="M 46,680 C 46,826 152,947 306,947 459,947 565,826 565,680 565,525 461,413 306,413 150,413 46,525 46,680 m 100,0 c 0,-97 59,-191 160,-191 100,0 159,94 159,191 0,91 -49,191 -159,191 C 195,871 146,771 146,680"
             transform="translate(1610,0)"
             id="path1636"
             inkscape:connector-curvature="0" />
        </g>
      </g>
    </g>
    <g
       transform="translate(0,-71)"
       id="cairo_text_small">
      <g
         transform="scale(0.085,0.085)"
         id="g1639">
        <g
           transform="translate(-1139,-208.5)"
           id="g1641">
          <path
             d="M 412,433 C 385,422 336,413 298,413 142,413 38,525 38,680 c 0,146 106,267 260,267 34,0 79,-3 118,-21 l -7,-84 c -29,19 -69,29 -101,29 -121,0 -170,-100 -170,-191 0,-97 59,-191 164,-191 30,0 66,7 102,22 l 8,-78"
             transform="translate(-151,0)"
             id="path1643"
             inkscape:connector-curvature="0" />
          <path
             d="m 109,541 c 38,-32 95,-52 148,-52 94,0 126,45 126,133 -37,-2 -63,-2 -100,-2 -97,0 -237,40 -237,168 0,111 77,159 187,159 86,0 136,-47 158,-78 l 2,0 0,66 88,0 c -2,-15 -4,-42 -4,-100 l 0,-211 c 0,-139 -59,-211 -205,-211 -65,0 -121,20 -168,48 l 5,80 m 274,196 c 0,76 -49,134 -142,134 -43,0 -95,-29 -95,-83 0,-90 126,-98 177,-98 20,0 40,2 60,2 l 0,45"
             transform="translate(379.5,0)"
             id="path1645"
             inkscape:connector-curvature="0" />
          <path
             d="m 92,935 94,0 0,-510 -94,0 0,510 M 88,261 c 0,-28.16652 22.83348,-51 51,-51 28.16652,0 51,22.83348 51,51 0,28.16652 -22.83348,51 -51,51 -28.16652,0 -51,-22.83348 -51,-51"
             transform="translate(1000,0)"
             id="path1647"
             inkscape:connector-curvature="0" />
          <path
             d="m 80,935 94,0 0,-232 c 0,-128 55,-208 139,-208 16,0 35,2 52,9 l 0,-84 c -20,-4 -34,-7 -62,-7 -54,0 -108,38 -133,91 l -2,0 0,-79 -88,0 0,510"
             transform="translate(1341.5,0)"
             id="path1649"
             inkscape:connector-curvature="0" />
          <path
             d="M 46,680 C 46,826 152,947 306,947 459,947 565,826 565,680 565,525 461,413 306,413 150,413 46,525 46,680 m 100,0 c 0,-97 59,-191 160,-191 100,0 159,94 159,191 0,91 -49,191 -159,191 C 195,871 146,771 146,680"
             transform="translate(1826,0)"
             id="path1651"
             inkscape:connector-curvature="0" />
        </g>
      </g>
    </g>
    <g
       id="cairo_logo_with_text">
      <use
         transform="translate(0,-245)"
         id="use1654"
         x="0"
         y="0"
         width="310"
         height="410"
         xlink:href="#cairo_logo_top-centered" />
      <use
         transform="translate(0,245)"
         id="use1656"
         x="0"
         y="0"
         width="310"
         height="410"
         xlink:href="#cairo_text" />
    </g>
    <g
       id="cairo_banner">
      <use
         id="use1659"
         x="0"
         y="0"
         width="310"
         height="410"
         xlink:href="#cairo_logo_bottomleft-centered" />
      <use
         transform="translate(0,42)"
         style="fill:#000000"
         id="use1661"
         x="0"
         y="0"
         width="310"
         height="410"
         xlink:href="#cairo_text_small" />
      <use
         id="use1663"
         x="0"
         y="0"
         width="310"
         height="410"
         xlink:href="#cairo_logo_bottomleft-centered" />
    </g>
  </defs>
  <sodipodi:namedview
     id="base"
     pagecolor="#ffffff"
     bordercolor="#666666"
     borderopacity="1.0"
     gridtolerance="10000"
     guidetolerance="10"
     objecttolerance="10"
     inkscape:pageopacity="0.0"
     inkscape:pageshadow="2"
     inkscape:zoom="2"
     inkscape:cx="139.64583"
     inkscape:cy="46.860474"
     inkscape:document-units="px"
     inkscape:current-layer="layer1"
     inkscape:window-width="971"
     inkscape:window-height="588"
     inkscape:window-x="2869"
     inkscape:window-y="378"
     showgrid="false"
     fit-margin-top="5"
     fit-margin-left="14"
     fit-margin-right="14"
     fit-margin-bottom="5"
     inkscape:window-maximized="0" />
  <metadata
     id="metadata2703">
    <rdf:RDF>
      <cc:Work
         rdf:about="">
        <dc:format>image/svg+xml</dc:format>
        <dc:type
           rdf:resource="http://purl.org/dc/dcmitype/StillImage" />
        <dc:title></dc:title>
      </cc:Work>
    </rdf:RDF>
  </metadata>
  <g
     inkscape:label="Layer 1"
     inkscape:groupmode="layer"
     id="layer1"
     transform="translate(-72.106772,-408.65985)">
    <use
       xlink:href="#scarab-red"
       height="410"
       width="310"
       y="0"
       x="0"
       id="use2310"
       transform="matrix(0.188169,0,0,0.188169,114.33664,455.74324)"
       inkscape:transform-center-x="-108.5"
       inkscape:transform-center-y="13.5"
       style="fill:#cb2327;fill-opacity:1" />
    <image
       sodipodi:absref="/home/kou/work/ruby/rcairo-doc/ruby-pink-circle.png"
       xlink:href="ruby-pink-circle.png"
       y="413.65985"
       x="103.33656"
       id="image2388"
       height="22"
       width="22" />
  </g>
</svg>
